<svg version="1.1" id="Layer_1" xmlns="http://www.w3.org/2000/svg" x="0" y="0" viewBox="0 0 1400 400"
    xml:space="preserve">
    <path class="st0"
        d="M461.86 223.6l-21.39 52.63h-30.83L485.7 91.5h36.75l79.31 184.74H569.5l-22.41-52.63h-85.23zm76.04-25.48c-20.7-48.94-30.51-72.48-34.68-85.39h-.25c-3.78 12.51-15.41 43.3-32.38 85.39h67.31zM643.68 222.14c6.19 20.28 20.89 34.35 54.92 34.35 33.55 0 45.78-12.82 45.78-28.76 0-16.87-9.51-27.1-53.79-34.77-55.98-9.78-68.53-28.02-68.53-53.08 0-33.54 31.06-52.16 70.97-52.16 59.18 0 73.64 31.72 75.66 51.05h-29.98c-3.38-11.75-10.62-27.36-46.52-27.36-24.62 0-39.82 8.53-39.82 25.49 0 14.05 7.35 22.6 46.45 29.44 65.63 11.63 76.13 32.45 76.13 58.29 0 30.03-23.19 55.4-78.7 55.4-51.6 0-76.96-24.07-82.69-57.89h30.12zM813.8 91.5h29.7v88.57c27.13-24.21 66.57-58.04 100.65-88.57h37.76l-89.67 79.23 94.92 105.5h-38.08l-78.8-88.88-26.78 22.17v66.7h-29.7V91.5zM999.42 177.13c0-11.18 0-23.64-.25-33.42h27.49c.51 4.36.88 14.62.99 22.72 5.66-11.87 18.7-26.36 45.71-26.36 30.6 0 50.01 19.42 50.01 55.24v80.94h-28.46v-75.92c0-20.18-7.53-36.5-30.12-36.5-24.92 0-37.03 19.21-37.03 48.25v64.17h-28.34v-99.12zM1182.02 216.83c1.29 23.14 16.65 40.29 41.1 40.29 18.97 0 29.15-7.58 35.53-19.28h28.23c-7.14 20.63-25.63 42.04-64.84 42.04-47.76 0-68.27-35.01-68.27-69.57 0-39.37 25.54-70.26 67.74-70.26 49.21 0 67.17 36.53 67.17 69.38 0 2.51 0 4.41-.12 7.39h-106.54zm77.51-19.63c-1.04-14.38-8.47-35.32-38.16-35.32-25.19 0-36.87 15.75-38.85 35.32h77.01zM1302.61 143.71h24.98v-41.78h28.34v41.78h32.68v22.26h-32.68v68.48c0 14.24 3.41 20.61 17.06 20.61 3.68 0 8.59-.14 12.27-1.07v20.87c-6.1 2.08-13.47 2.56-21.39 2.56-27.91 0-36.29-12.72-36.29-38.75v-72.7h-24.98v-22.26z"
        fill="#2196f3" />
    <g>
        <path
            d="M218.99 92.73c73.3-.69 127.34 66.79 122.13 137.64-2.12 28.79-12.25 54.68-31.51 75.62-23.51 25.56-47.83 50.42-72 75.46-8.81 9.03-19.6 11.42-31.03 6.65s-17.96-14.13-19.42-26.91c-.98-8.17 1.14-15.51 6.85-21.47 16.32-17.39 32.64-34.75 48.99-52.13 7.99-8.69 16.16-17.2 23.36-26.41 16.48-20.95 18.78-44.3 7.67-68.31-11.75-25.2-31.66-37.48-58.78-36.62-15.02.33-27.59 6.29-38.2 17.03-10.29 10.4-20.58 21.11-31.19 31.19-10.29 9.71-23.67 10.74-34.94 3.4-11.61-7.46-17.16-21.95-13.41-35.56.82-3.06 2.28-6.29 4.23-8.86 15.02-18.74 30.87-36.62 50.44-50.26 20.28-14.34 42.98-20.96 66.81-20.46z"
            fill="#4caf50" />
        <path
            d="M121.49 308.06C49.81 308.58-4.87 240.93.34 170.25 2.46 142.49 11.77 117.26 29.89 97c22.85-25.56 47.03-49.92 70.7-74.63 2.62-2.73 5.55-4.94 8.65-6.98 11.75-7.51 23.83-6.29 34.62 3.06 9.31 8.17 13.39 23.35 8.49 34.91-1.8 4.44-5.24 8.36-8.49 11.92-20.42 21.8-40.97 43.61-61.23 65.41-8.17 8.69-15.34 18.05-18.94 30.14-11.93 39.71 17.14 86.22 62.03 83.84 14.86-.86 27.59-5.96 38.36-16.7 10.29-10.4 20.42-20.95 31.19-31.19 10.29-9.71 22.85-11.07 33.96-4.42 11.43 6.65 17.64 19.76 15.18 33.39-.82 4.25-2.62 8.86-5.24 12.09-15.02 18.57-31.03 36.46-50.44 50.26-20.21 14.33-43.09 19.79-67.24 19.96z"
            fill="#ffc107" />
    </g>
</svg>
